<?xml version="1.0" encoding="utf-8"?>
<!-- Generator: Adobe Illustrator 15.0.2, SVG Export Plug-In  -->
<!DOCTYPE svg PUBLIC "-//W3C//DTD SVG 1.1//EN" "http://www.w3.org/Graphics/SVG/1.1/DTD/svg11.dtd" [
	<!ENTITY ns_flows "http://ns.adobe.com/Flows/1.0/">
]>
<svg version="1.1"
	 xmlns="http://www.w3.org/2000/svg" xmlns:xlink="http://www.w3.org/1999/xlink" xmlns:a="http://ns.adobe.com/AdobeSVGViewerExtensions/3.0/"
	 x="0px" y="0px" width="32px" height="32px" viewBox="0 0 32 32" overflow="visible" enable-background="new 0 0 32 32"
	 xml:space="preserve">
<defs>
</defs>
<g>
	<defs>
		<rect id="SVGID_1_" width="32" height="32"/>
	</defs>
	<clipPath id="SVGID_2_">
		<use xlink:href="#SVGID_1_"  overflow="visible"/>
	</clipPath>
	<path clip-path="url(#SVGID_2_)" fill="#F1DEB7" d="M15.971,0.96C7.681,0.96,0.96,7.681,0.96,15.971s6.721,15.011,15.011,15.011
		s15.011-6.72,15.011-15.011S24.262,0.96,15.971,0.96 M15.971,28.517c-6.918,0-12.546-5.628-12.546-12.546S9.053,3.425,15.971,3.425
		c6.917,0,12.545,5.628,12.545,12.546S22.889,28.517,15.971,28.517"/>
	<path clip-path="url(#SVGID_2_)" fill="#F1DEB7" d="M25.246,13.039c-0.002-0.012-0.005-0.023-0.007-0.035
		c-0.004-0.022-0.008-0.045-0.014-0.067c-0.003-0.013-0.008-0.026-0.013-0.039c-0.006-0.02-0.013-0.039-0.021-0.058
		c-0.005-0.013-0.012-0.026-0.018-0.039c-0.008-0.018-0.017-0.036-0.027-0.053c-0.007-0.013-0.015-0.025-0.022-0.037
		c-0.011-0.017-0.022-0.033-0.034-0.048c-0.009-0.012-0.018-0.023-0.027-0.035c-0.013-0.015-0.026-0.029-0.04-0.043
		c-0.01-0.011-0.021-0.021-0.032-0.031c-0.015-0.013-0.03-0.026-0.045-0.038c-0.012-0.009-0.024-0.019-0.036-0.027
		c-0.005-0.003-0.009-0.007-0.013-0.01l-8.484-5.656c-0.268-0.179-0.617-0.179-0.885,0l-8.484,5.656
		c-0.004,0.003-0.008,0.007-0.013,0.01c-0.012,0.009-0.024,0.018-0.036,0.027c-0.016,0.012-0.031,0.025-0.045,0.038
		c-0.011,0.01-0.021,0.021-0.032,0.031c-0.014,0.014-0.027,0.028-0.04,0.043c-0.01,0.011-0.019,0.023-0.028,0.035
		c-0.012,0.016-0.023,0.032-0.033,0.048c-0.008,0.012-0.016,0.024-0.023,0.037c-0.01,0.017-0.019,0.035-0.027,0.053
		c-0.006,0.013-0.012,0.026-0.018,0.039c-0.008,0.019-0.014,0.039-0.021,0.058c-0.004,0.013-0.009,0.025-0.013,0.039
		c-0.006,0.022-0.01,0.044-0.014,0.067c-0.002,0.012-0.005,0.023-0.006,0.035c-0.005,0.034-0.007,0.069-0.007,0.104v5.656
		c0,0.035,0.002,0.07,0.007,0.104c0.001,0.011,0.004,0.023,0.006,0.034c0.004,0.023,0.008,0.045,0.014,0.067
		c0.004,0.013,0.008,0.026,0.013,0.039c0.006,0.019,0.013,0.039,0.021,0.058c0.005,0.014,0.012,0.026,0.018,0.039
		c0.009,0.018,0.018,0.035,0.027,0.053c0.007,0.012,0.015,0.024,0.023,0.037c0.01,0.017,0.021,0.033,0.033,0.048
		c0.009,0.012,0.018,0.023,0.028,0.035c0.013,0.015,0.025,0.029,0.04,0.043c0.01,0.011,0.021,0.021,0.032,0.031
		c0.015,0.014,0.03,0.026,0.045,0.039c0.012,0.009,0.023,0.019,0.036,0.027c0.005,0.003,0.009,0.007,0.013,0.009l8.484,5.656
		c0.134,0.089,0.289,0.134,0.443,0.134c0.154,0,0.308-0.045,0.442-0.134l8.484-5.656c0.004-0.002,0.008-0.006,0.013-0.009
		c0.012-0.009,0.024-0.018,0.036-0.027c0.015-0.012,0.03-0.025,0.045-0.039c0.011-0.009,0.021-0.02,0.032-0.031
		c0.014-0.014,0.027-0.028,0.04-0.043c0.009-0.012,0.019-0.022,0.027-0.035c0.012-0.016,0.023-0.032,0.034-0.048
		c0.007-0.013,0.015-0.024,0.022-0.037c0.01-0.018,0.019-0.036,0.027-0.053c0.006-0.013,0.012-0.025,0.018-0.039
		c0.008-0.019,0.014-0.039,0.021-0.058c0.004-0.013,0.009-0.025,0.013-0.039c0.006-0.022,0.01-0.044,0.014-0.067
		c0.002-0.011,0.005-0.022,0.007-0.034c0.004-0.035,0.007-0.069,0.007-0.104v-5.656C25.253,13.108,25.25,13.073,25.246,13.039
		 M16.769,8.978l6.25,4.166l-2.792,1.868l-3.458-2.313V8.978z M15.173,8.978v3.72l-3.458,2.313l-2.792-1.868L15.173,8.978z
		 M8.285,14.636l1.996,1.335l-1.996,1.335V14.636z M15.173,22.964l-6.25-4.167l2.792-1.867l3.458,2.313V22.964z M15.971,17.858
		l-2.821-1.887l2.821-1.887l2.821,1.887L15.971,17.858z M16.769,22.964v-3.72l3.458-2.313l2.792,1.867L16.769,22.964z
		 M23.657,17.306l-1.996-1.335l1.996-1.335V17.306z"/>
</g>
</svg>
